HIERARCHY
ROOT Hips
{
	OFFSET 0.000000 0.000000 0.000000 
	CHANNELS 6 Xposition Yposition Zposition Zrotation Xrotation Yrotation
	JOINT Spine
	{
		OFFSET -0.000000 8.061080 0.000000 
		CHANNELS 3 Zrotation Xrotation Yrotation
		JOINT Spine1
		{
			OFFSET -0.000000 20.532677 0.000000 
			CHANNELS 3 Zrotation Xrotation Yrotation
			JOINT Neck
			{
				OFFSET -0.000000 22.498795 0.000000 
				CHANNELS 3 Zrotation Xrotation Yrotation
				JOINT Head
				{
					OFFSET -0.000000 15.237408 1.966117 
					CHANNELS 3 Zrotation Xrotation Yrotation
					End Site
					{
						OFFSET -0.000000 19.661171 0.000000 
					}
				}
			}
			JOINT LeftShoulder
			{
				OFFSET 3.894675 16.042269 -0.398189 
				CHANNELS 3 Zrotation Xrotation Yrotation
				JOINT LeftArm
				{
					OFFSET 19.709621 0.000000 0.000000 
					CHANNELS 3 Zrotation Xrotation Yrotation
					JOINT LeftForeArm
					{
						OFFSET 25.566900 0.000000 0.000000 
						CHANNELS 3 Zrotation Xrotation Yrotation
						JOINT LeftHand
						{
							OFFSET 25.401896 0.000000 0.000000 
							CHANNELS 3 Zrotation Xrotation Yrotation
							End Site
							{
								OFFSET 14.745877 0.000000 0.000000 
							}
						}
					}
				}
			}
			JOINT RightShoulder
			{
				OFFSET -3.930777 16.042269 -0.398189 
				CHANNELS 3 Zrotation Xrotation Yrotation
				JOINT RightArm
				{
					OFFSET -19.709621 0.000000 0.000000 
					CHANNELS 3 Zrotation Xrotation Yrotation
					JOINT RightForeArm
					{
						OFFSET -25.566900 0.000000 0.000000 
						CHANNELS 3 Zrotation Xrotation Yrotation
						JOINT RightHand
						{
							OFFSET -25.401896 0.000000 0.000000 
							CHANNELS 3 Zrotation Xrotation Yrotation
							End Site
							{
								OFFSET -14.745877 0.000000 0.000000 
							}
						}
					}
				}
			}
		}
	}
	JOINT LeftUpLeg
	{
		OFFSET 9.830585 0.000000 0.000000 
		CHANNELS 3 Zrotation Xrotation Yrotation
		JOINT LeftLeg
		{
			OFFSET -0.000000 -46.474842 0.000000 
			CHANNELS 3 Zrotation Xrotation Yrotation
			JOINT LeftFoot
			{
				OFFSET -0.000000 -30.290520 0.000000 
				CHANNELS 3 Zrotation Xrotation Yrotation
				JOINT LeftToeBase
				{
					OFFSET -0.000000 -6.389880 14.745877 
					CHANNELS 3 Zrotation Xrotation Yrotation
					End Site
					{
						OFFSET -0.000000 0.000000 3.932234 
					}
				}
			}
		}
	}
	JOINT RightUpLeg
	{
		OFFSET -9.830585 0.000000 0.000000 
		CHANNELS 3 Zrotation Xrotation Yrotation
		JOINT RightLeg
		{
			OFFSET -0.000000 -46.474842 0.000000 
			CHANNELS 3 Zrotation Xrotation Yrotation
			JOINT RightFoot
			{
				OFFSET -0.000000 -30.290520 0.000000 
				CHANNELS 3 Zrotation Xrotation Yrotation
				JOINT RightToeBase
				{
					OFFSET -0.000000 -6.389880 14.745877 
					CHANNELS 3 Zrotation Xrotation Yrotation
					End Site
					{
						OFFSET -0.000000 0.000000 3.932234 
					}
				}
			}
		}
	}
}
MOTION
Frames: 18
Frame Time: 0.010000
-8.722748 85.028725 7.600470 -3.179162 6.194236 2.586531 2.073786 -6.721980 0.914999 0.406109 0.354675 0.261921 4.094841 10.276369 -1.297463 -0.534741 9.778458 -0.310980 4.188806 10.851183 0.539008 -66.793251 26.473755 -22.634087 -11.836547 -1.183454 -3.635824 4.310344 -1.319001 6.410143 -8.223234 9.686593 -9.386243 62.148254 45.013161 30.717709 3.976653 -9.570333 6.118665 -3.978036 -9.962713 5.338612 11.948329 1.694740 2.072449 2.982208 2.528783 2.661337 -2.200703 -5.717813 -0.311867 0.000000 0.000000 0.000000 -22.930216 -18.957506 7.961317 11.520747 18.960543 0.280510 0.000000 0.000000 0.000000 0.000000 0.000000 0.000000 
-9.320200 84.922966 7.879516 -3.053684 6.218321 2.666995 2.088033 -6.725661 0.899046 0.374190 0.357219 0.256304 4.048618 10.286139 -1.297548 -0.553577 9.814294 -0.316963 4.174346 10.894204 0.573785 -66.796097 26.397287 -22.611710 -11.809296 -1.202773 -3.647961 4.314796 -1.339229 6.389487 -8.238228 9.677505 -9.387283 62.182537 44.992691 30.629196 3.983256 -9.569452 6.115459 -4.018071 -9.962955 5.310980 12.168207 1.777845 2.028478 3.039877 2.552303 2.705947 -2.379074 -5.677553 -0.286414 0.000000 0.000000 0.000000 -23.113832 -18.953794 7.834736 11.941019 19.012739 0.363048 0.000000 0.000000 0.000000 0.000000 0.000000 0.000000 
-9.934060 84.816246 8.163150 -2.925298 6.242330 2.749793 2.101840 -6.729837 0.882402 0.341768 0.359416 0.250551 4.001956 10.296184 -1.295496 -0.575223 9.844505 -0.320032 4.159284 10.939086 0.608998 -66.800735 26.314726 -22.588757 -11.780183 -1.223074 -3.660728 4.319247 -1.360517 6.367751 -8.254071 9.666524 -9.386471 62.210556 44.981823 30.547356 3.992665 -9.569954 6.111992 -4.054573 -9.964548 5.283529 12.380018 1.844131 1.983963 3.133144 2.609104 2.764882 -2.583671 -5.634604 -0.279511 0.000000 0.000000 0.000000 -23.284557 -18.948044 7.702099 12.365707 19.074621 0.443980 0.000000 0.000000 0.000000 0.000000 0.000000 0.000000 
-10.564177 84.709023 8.451043 -2.794427 6.266177 2.834787 2.115099 -6.734262 0.865114 0.309318 0.361108 0.244582 3.954496 10.306672 -1.290888 -0.599180 9.869041 -0.320278 4.143483 10.985811 0.644675 -66.807404 26.225950 -22.565317 -11.748928 -1.244481 -3.673860 4.323658 -1.382872 6.344873 -8.270992 9.653680 -9.383684 62.232277 44.981140 30.472786 4.004455 -9.572159 6.107918 -4.087438 -9.967778 5.256392 12.578032 1.879172 1.939132 3.278120 2.734488 2.842288 -2.826115 -5.606231 -0.298673 0.000000 0.000000 0.000000 -23.441582 -18.940617 7.563121 12.795245 19.147198 0.523031 0.000000 0.000000 0.000000 0.000000 0.000000 0.000000 
-11.210305 84.601768 8.742800 -2.661369 6.289988 2.921788 2.127827 -6.738957 0.847237 0.276805 0.362368 0.238457 3.906493 10.317430 -1.283754 -0.625513 9.888169 -0.317649 4.126945 11.034225 0.680791 -66.816040 26.130850 -22.541475 -11.715531 -1.267044 -3.687308 4.327925 -1.406392 6.320876 -8.288892 9.638833 -9.378897 62.247517 44.990780 30.405891 4.018797 -9.576174 6.103303 -4.116809 -9.972750 5.229527 12.815067 1.953878 1.892261 3.327379 2.751221 2.885793 -2.996508 -5.505297 -0.271842 0.000000 0.000000 0.000000 -23.584305 -18.932087 7.417351 13.230011 19.231426 0.599914 0.000000 0.000000 0.000000 0.000000 0.000000 0.000000 
-11.872162 84.494980 9.038032 -2.526488 6.313738 3.010624 2.140020 -6.743816 0.828829 0.244318 0.363176 0.232275 3.858280 10.328743 -1.274332 -0.654471 9.901605 -0.312023 4.109849 11.084291 0.717172 -66.826920 26.029272 -22.517378 -11.679821 -1.290831 -3.700853 4.332050 -1.431123 6.295749 -8.307688 9.622017 -9.372075 62.256126 45.010784 30.347063 4.035756 -9.582088 6.098192 -4.142781 -9.979619 5.202894 13.055981 2.024932 1.844604 3.377044 2.764066 2.931095 -3.164783 -5.380486 -0.247334 0.000000 0.000000 0.000000 -23.712017 -18.922873 7.264498 13.670253 19.328253 0.674285 0.000000 0.000000 0.000000 0.000000 0.000000 0.000000 
-12.549394 84.389198 9.336285 -2.390169 6.337659 3.101100 2.151717 -6.748867 0.810283 0.211975 0.363472 0.225716 3.809755 10.340390 -1.262377 -0.685699 9.909729 -0.303508 4.092098 11.135788 0.753859 -66.840118 25.921015 -22.492907 -11.641884 -1.315755 -3.714597 4.336033 -1.456993 6.269683 -8.327337 9.603243 -9.363236 62.257854 45.041439 30.296953 4.055108 -9.590135 6.092462 -4.165348 -9.988503 5.176528 13.300390 2.091283 1.796380 3.427024 2.773340 2.978199 -3.330175 -5.230911 -0.225531 0.000000 0.000000 0.000000 -23.824083 -18.913656 7.104274 14.116132 19.438610 0.745769 0.000000 0.000000 0.000000 0.000000 0.000000 0.000000 
-13.241579 84.284996 9.637154 -2.252769 6.361588 3.193055 2.162817 -6.753858 0.791244 0.180075 0.363197 0.219241 3.761003 10.352579 -1.247885 -0.719143 9.912453 -0.292075 4.073560 11.188691 0.790671 -66.855789 25.806345 -22.468435 -11.601233 -1.342133 -3.727968 4.339694 -1.484198 6.242485 -8.347880 9.582480 -9.352203 62.252750 45.082924 30.255733 4.076777 -9.600496 6.086039 -4.184620 -9.999697 5.150537 13.547910 2.152380 1.747572 3.476815 2.779201 3.027276 -3.491304 -5.055876 -0.206696 0.000000 0.000000 0.000000 -23.919806 -18.904617 6.936658 14.567551 19.563232 0.813955 0.000000 0.000000 0.000000 0.000000 0.000000 0.000000 
-13.948221 84.182953 9.940136 -2.114584 6.385823 3.286273 2.173420 -6.758900 0.771911 0.148455 0.362376 0.212844 3.712362 10.365264 -1.231081 -0.754986 9.909635 -0.277589 4.054493 11.242770 0.827633 -66.874161 25.684875 -22.443855 -11.558185 -1.369630 -3.741315 4.343095 -1.512526 6.214492 -8.369269 9.559704 -9.339078 62.240719 45.135338 30.223862 4.100529 -9.613342 6.078964 -4.200472 -10.013298 5.124825 13.797904 2.207088 1.698412 3.526222 2.782044 3.078304 -3.647131 -4.854867 -0.191274 0.000000 0.000000 0.000000 -23.998709 -18.896467 6.761457 15.024309 19.702885 0.878388 0.000000 0.000000 0.000000 0.000000 0.000000 0.000000 
-14.668757 84.083656 10.244768 -1.975956 6.410383 3.380585 2.183493 -6.763848 0.752726 0.117302 0.360914 0.206222 3.663655 10.378377 -1.211813 -0.792651 9.901567 -0.260174 4.034760 11.297865 0.864597 -66.895401 25.557072 -22.419497 -11.512341 -1.398550 -3.754031 4.346101 -1.542151 6.185593 -8.391346 9.535049 -9.323910 62.221470 45.198429 30.201765 4.126583 -9.628656 6.071326 -4.213201 -10.029322 5.099452 14.049751 2.254608 1.649065 3.575023 2.782289 3.131214 -3.796665 -4.627850 -0.179824 0.000000 0.000000 0.000000 -24.060255 -18.889521 6.578836 15.485983 19.858053 0.938608 0.000000 0.000000 0.000000 0.000000 0.000000 0.000000 
-15.402572 83.987717 10.550598 -1.837309 6.435129 3.475854 2.193191 -6.768476 0.733466 0.086616 0.358868 0.199730 3.615333 10.391954 -1.190255 -0.832538 9.888026 -0.239788 4.014450 11.353811 0.901477 -66.919685 25.422850 -22.395439 -11.463778 -1.428742 -3.766242 4.348706 -1.572953 6.156009 -8.414138 9.508488 -9.306672 62.195019 45.272442 30.189756 4.154591 -9.646735 6.063050 -4.222786 -10.048066 5.074422 14.302895 2.294333 1.599548 3.622680 2.780226 3.186061 -3.938603 -4.374740 -0.172603 0.000000 0.000000 0.000000 -24.103771 -18.883837 6.389185 15.951910 20.029024 0.994156 0.000000 0.000000 0.000000 0.000000 0.000000 0.000000 
-16.148933 83.895737 10.857100 -1.698815 6.460377 3.571851 2.202379 -6.772904 0.714504 0.056516 0.356108 0.193172 3.567330 10.406104 -1.166312 -0.874291 9.869034 -0.216636 3.993414 11.410378 0.938119 -66.947182 25.282471 -22.371716 -11.412326 -1.460251 -3.777745 4.350772 -1.604911 6.125825 -8.437603 9.480129 -9.287287 62.161411 45.357086 30.187908 4.184381 -9.667610 6.054307 -4.229200 -10.069534 5.049730 14.556267 2.325134 1.550212 3.669105 2.776493 3.242757 -4.072044 -4.096124 -0.170260 0.000000 0.000000 0.000000 -24.129013 -18.879990 6.192668 16.421106 20.216003 1.044498 0.000000 0.000000 0.000000 0.000000 0.000000 0.000000 
-16.907097 83.808342 11.163818 -1.560913 6.485938 3.668477 2.211314 -6.776858 0.695752 0.026891 0.352674 0.186815 3.519984 10.420670 -1.140038 -0.917947 9.844684 -0.190818 3.971905 11.467452 0.974487 -66.978172 25.136238 -22.348759 -11.357988 -1.492993 -3.788334 4.352332 -1.638021 6.095175 -8.461582 9.450050 -9.265930 62.120464 45.452213 30.196529 4.215906 -9.691425 6.045174 -4.232621 -10.093883 5.025375 14.809198 2.346480 1.501100 3.713900 2.771581 3.301025 -4.196023 -3.792628 -0.173238 0.000000 0.000000 0.000000 -24.135345 -18.877817 5.990071 16.892258 20.418657 1.089189 0.000000 0.000000 0.000000 0.000000 0.000000 0.000000 
-17.676203 83.726128 11.470230 -1.423795 6.512094 3.765541 2.219951 -6.780417 0.677233 -0.002245 0.348404 0.180783 3.473446 10.435811 -1.111818 -0.963501 9.814776 -0.162066 3.949888 11.524854 1.010474 -67.012856 24.984480 -22.326633 -11.300653 -1.526944 -3.797959 4.353246 -1.672090 6.064206 -8.486057 9.418444 -9.242566 62.072224 45.557480 30.215794 4.249024 -9.718172 6.035722 -4.233074 -10.121132 5.001398 15.060527 2.357379 1.452520 3.756788 2.766085 3.360861 -4.309607 -3.465462 -0.182017 0.000000 0.000000 0.000000 -24.122618 -18.877680 5.782053 17.364002 20.636600 1.127795 0.000000 0.000000 0.000000 0.000000 0.000000 0.000000 
-18.455353 83.649658 11.775901 -1.287782 6.538592 3.862936 2.228461 -6.783284 0.659542 -0.030930 0.343383 0.174681 3.427881 10.451224 -1.081470 -1.010794 9.779567 -0.130822 3.927440 11.582343 1.046013 -67.051323 24.827768 -22.305721 -11.240427 -1.562047 -3.806439 4.353520 -1.707188 6.033077 -8.510962 9.385364 -9.217402 62.016663 45.672726 30.245790 4.283484 -9.748005 6.026085 -4.230616 -10.151404 4.977806 15.309284 2.357440 1.404535 3.797395 2.760609 3.421905 -4.411887 -3.116081 -0.196920 0.000000 0.000000 0.000000 -24.090427 -18.879215 5.569709 17.834490 20.868877 1.159949 0.000000 0.000000 0.000000 0.000000 0.000000 0.000000 
-19.243568 83.579514 12.080309 -1.153077 6.565766 3.960494 2.236814 -6.785690 0.642339 -0.059125 0.337510 0.169019 3.383438 10.467242 -1.049196 -1.059703 9.738664 -0.097004 3.904527 11.639781 1.080887 -67.093857 24.666424 -22.286062 -11.177198 -1.598128 -3.813818 4.353032 -1.743116 6.002029 -8.536163 9.351038 -9.190317 61.953861 45.797340 30.286386 4.319011 -9.780916 6.016447 -4.225187 -10.184673 4.954577 15.554238 2.345713 1.357421 3.835532 2.755880 3.483982 -4.502456 -2.746405 -0.218525 0.000000 0.000000 0.000000 -24.038689 -18.882643 5.353954 18.301655 21.114347 1.185336 0.000000 0.000000 0.000000 0.000000 0.000000 0.000000 
-20.039827 83.516212 12.383038 -1.019938 6.593394 4.058141 2.245184 -6.787353 0.626132 -0.086941 0.330807 0.163453 3.340398 10.483594 -1.015206 -1.110333 9.692220 -0.060823 3.881284 11.696933 1.115074 -67.140495 24.501240 -22.268040 -11.111064 -1.635206 -3.819936 4.351692 -1.779798 5.971107 -8.561611 9.315593 -9.161572 61.883732 45.931068 30.337700 4.355554 -9.817003 6.006983 -4.216958 -10.221094 4.931812 15.794203 2.321883 1.311334 3.870928 2.752562 3.546788 -4.580580 -2.358675 -0.247253 0.000000 0.000000 0.000000 -23.967171 -18.887428 5.136153 18.763029 21.371292 1.203756 0.000000 0.000000 0.000000 0.000000 0.000000 0.000000 
-20.843058 83.460243 12.683652 -0.888633 6.621456 4.155782 2.253711 -6.788199 0.610882 -0.114399 0.323208 0.158198 3.298862 10.500304 -0.979508 -1.162420 9.640211 -0.022516 3.857705 11.753667 1.148434 -67.191414 24.332758 -22.251802 -11.042153 -1.673027 -3.824947 4.349508 -1.817049 5.940628 -8.587227 9.279196 -9.131194 61.806648 46.073280 30.399309 4.392710 -9.856216 5.997972 -4.205922 -10.260571 4.909387 16.027998 2.285516 1.266421 3.903362 2.751389 3.609878 -4.646177 -1.955510 -0.283371 0.000000 0.000000 0.000000 -23.875786 -18.893202 4.917787 19.216101 21.637651 1.215182 0.000000 0.000000 0.000000 0.000000 0.000000 0.000000 
